<svg width="61" height="61" viewBox="0 0 61 61" fill="none" xmlns="http://www.w3.org/2000/svg">
<path d="M8.5 53C7.4 53 6.45833 52.6083 5.675 51.825C4.89167 51.0417 4.5 50.1 4.5 49V25C4.5 23.9 4.89167 22.9583 5.675 22.175C6.45833 21.3917 7.4 21 8.5 21H40.5C41.6 21 42.5417 21.3917 43.325 22.175C44.1083 22.9583 44.5 23.9 44.5 25V49C44.5 50.1 44.1083 51.0417 43.325 51.825C42.5417 52.6083 41.6 53 40.5 53H8.5ZM24.5 39L40.5 29V25L24.5 35L8.5 25V29L24.5 39Z" fill="url(#paint0_linear_50_7012)"/>
<path d="M8.5 53C7.4 53 6.45833 52.6083 5.675 51.825C4.89167 51.0417 4.5 50.1 4.5 49V25C4.5 23.9 4.89167 22.9583 5.675 22.175C6.45833 21.3917 7.4 21 8.5 21H40.5C41.6 21 42.5417 21.3917 43.325 22.175C44.1083 22.9583 44.5 23.9 44.5 25V49C44.5 50.1 44.1083 51.0417 43.325 51.825C42.5417 52.6083 41.6 53 40.5 53H8.5ZM24.5 39L40.5 29V25L24.5 35L8.5 25V29L24.5 39Z" fill="url(#paint1_linear_50_7012)" fill-opacity="0.8"/>
<path d="M55.672 8.13697C55.5609 8.13697 55.4566 8.1111 55.3592 8.05936C55.2618 8.00763 55.1834 7.92621 55.1241 7.81511L54.3689 6.16093L52.7923 5.42967C52.6652 5.37031 52.5748 5.29288 52.5212 5.1974C52.4676 5.10192 52.4407 4.99862 52.4407 4.8875C52.4407 4.77638 52.4676 4.67213 52.5212 4.57475C52.5748 4.47735 52.6652 4.39896 52.7923 4.33957L54.3689 3.61406L55.1241 1.95988C55.1834 1.84878 55.2618 1.76641 55.3592 1.71275C55.4566 1.6591 55.5609 1.63228 55.672 1.63228C55.7831 1.63228 55.8864 1.6591 55.9819 1.71275C56.0774 1.76641 56.1548 1.84878 56.2142 1.95988L56.9694 3.61406L58.5459 4.33957C58.673 4.39896 58.7634 4.47735 58.817 4.57475C58.8707 4.67213 58.8975 4.77638 58.8975 4.8875C58.8975 4.99862 58.8707 5.10192 58.817 5.1974C58.7634 5.29288 58.673 5.37031 58.5459 5.42967L56.9694 6.16093L56.2142 7.81511C56.1548 7.92621 56.0774 8.00763 55.9819 8.05936C55.8864 8.1111 55.7831 8.13697 55.672 8.13697ZM55.672 21.3859C55.5609 21.3859 55.4566 21.3601 55.3592 21.3083C55.2618 21.2566 55.1834 21.1672 55.1241 21.0401L54.3689 19.4099L52.7923 18.6786C52.6652 18.6193 52.5748 18.5418 52.5212 18.4464C52.4676 18.3509 52.4407 18.2476 52.4407 18.1365C52.4407 18.0253 52.4676 17.9211 52.5212 17.8237C52.5748 17.7263 52.6652 17.6479 52.7923 17.5885L54.3689 16.863L55.1241 15.2088C55.1834 15.0977 55.2618 15.0154 55.3592 14.9617C55.4566 14.9081 55.5609 14.8812 55.672 14.8812C55.7831 14.8812 55.8864 14.9081 55.9819 14.9617C56.0774 15.0154 56.1548 15.0977 56.2142 15.2088L56.9694 16.863L58.5459 17.5885C58.673 17.6479 58.7634 17.7263 58.817 17.8237C58.8707 17.9211 58.8975 18.0253 58.8975 18.1365C58.8975 18.2476 58.8707 18.3509 58.817 18.4464C58.7634 18.5418 58.673 18.6193 58.5459 18.6786L56.9694 19.4099L56.2142 21.0401C56.1548 21.1672 56.0774 21.2566 55.9819 21.3083C55.8864 21.3601 55.7831 21.3859 55.672 21.3859ZM46.3032 17.9552C46.1046 17.9552 45.907 17.8966 45.7103 17.7794C45.5136 17.6622 45.3676 17.4944 45.2725 17.276L43.8147 14.0365L40.5512 12.5307C40.3327 12.4356 40.165 12.2897 40.0478 12.093C39.9306 11.8963 39.88 11.6986 39.8959 11.5C39.8959 11.3014 39.9505 11.1037 40.0597 10.907C40.1689 10.7103 40.3327 10.5644 40.5512 10.4693L43.8147 8.98749L45.2725 5.74791C45.3676 5.52951 45.5136 5.36171 45.7103 5.24452C45.907 5.12734 46.1046 5.06874 46.3032 5.06874C46.5019 5.06874 46.7005 5.12334 46.8991 5.23255C47.0977 5.34175 47.2446 5.51354 47.3397 5.74791L48.8157 8.98749L52.0553 10.4693C52.2897 10.5644 52.4615 10.7103 52.5707 10.907C52.6799 11.1037 52.7345 11.3014 52.7345 11.5C52.7345 11.6986 52.6799 11.8963 52.5707 12.093C52.4615 12.2897 52.2977 12.4356 52.0793 12.5307L48.8157 14.0365L47.3397 17.276C47.2446 17.5104 47.0977 17.6822 46.8991 17.7914C46.7005 17.9006 46.5019 17.9552 46.3032 17.9552Z" fill="#1AEE16"/>
<defs>
<linearGradient id="paint0_linear_50_7012" x1="13" y1="21" x2="35" y2="55.5" gradientUnits="userSpaceOnUse">
<stop stop-color="#67FF65"/>
<stop offset="1" stop-color="#FFFF43"/>
</linearGradient>
<linearGradient id="paint1_linear_50_7012" x1="8" y1="37" x2="24.5" y2="31.5" gradientUnits="userSpaceOnUse">
<stop stop-color="#1AEE16"/>
<stop offset="1" stop-color="#67FF65" stop-opacity="0"/>
</linearGradient>
</defs>
</svg>
