<svg width="21" height="20" viewBox="0 0 21 20" fill="none" xmlns="http://www.w3.org/2000/svg">
<path d="M16.6042 7.5L13.0417 3.95833L14.1667 2.8125C14.5 2.47917 14.9097 2.3125 15.3958 2.3125C15.8819 2.3125 16.2986 2.47917 16.6458 2.8125L17.7292 3.91667C18.0764 4.25 18.2533 4.65278 18.26 5.125C18.2672 5.59722 18.1042 6 17.7708 6.33333L16.6042 7.5ZM3.91667 17.5833C3.65278 17.5833 3.42722 17.4897 3.24 17.3025C3.05222 17.1147 2.95833 16.8889 2.95833 16.625V14.4167C2.95833 14.2917 2.98278 14.17 3.03167 14.0517C3.08 13.9339 3.15278 13.8264 3.25 13.7292L11.8333 5.14583L15.3958 8.70833L6.8125 17.2917C6.71528 17.3889 6.61111 17.4619 6.5 17.5108C6.38889 17.5592 6.26389 17.5833 6.125 17.5833H3.91667Z" fill="white"/>
</svg>
